<mxfile host="app.diagrams.net" agent="Mozilla/5.0 (Windows NT 10.0; Win64; x64; rv:135.0) Gecko/20100101 Firefox/135.0" version="26.0.14">
  <diagram name="Page-1" id="CH_rz6mtZmloL91EuGOy">
    <mxGraphModel dx="712" dy="943" grid="1" gridSize="10" guides="1" tooltips="1" connect="1" arrows="1" fold="1" page="1" pageScale="1" pageWidth="850" pageHeight="1100" math="0" shadow="0">
      <root>
        <mxCell id="0" />
        <mxCell id="1" parent="0" />
        <mxCell id="OAEr4lpNUEm3LDWk9QwF-1" value="&lt;div&gt;STATE 0:&lt;/div&gt;&lt;div&gt;CREATE OBJECTS&lt;br&gt;&lt;/div&gt;" style="ellipse;whiteSpace=wrap;html=1;" parent="1" vertex="1">
          <mxGeometry x="360" y="330" width="120" height="80" as="geometry" />
        </mxCell>
        <mxCell id="OAEr4lpNUEm3LDWk9QwF-2" value="START" style="rounded=0;whiteSpace=wrap;html=1;" parent="1" vertex="1">
          <mxGeometry x="390" y="250" width="60" height="30" as="geometry" />
        </mxCell>
        <mxCell id="OAEr4lpNUEm3LDWk9QwF-3" value="&lt;div&gt;STATE 1:&lt;/div&gt;&lt;div&gt;STANDBY&lt;br&gt;&lt;/div&gt;" style="ellipse;whiteSpace=wrap;html=1;" parent="1" vertex="1">
          <mxGeometry x="360" y="460" width="120" height="80" as="geometry" />
        </mxCell>
        <mxCell id="OAEr4lpNUEm3LDWk9QwF-12" style="edgeStyle=orthogonalEdgeStyle;rounded=0;orthogonalLoop=1;jettySize=auto;html=1;exitX=1;exitY=0.5;exitDx=0;exitDy=0;entryX=1;entryY=0.5;entryDx=0;entryDy=0;curved=1;" parent="1" source="OAEr4lpNUEm3LDWk9QwF-4" target="OAEr4lpNUEm3LDWk9QwF-3" edge="1">
          <mxGeometry relative="1" as="geometry">
            <Array as="points">
              <mxPoint x="540" y="667" />
              <mxPoint x="540" y="500" />
            </Array>
          </mxGeometry>
        </mxCell>
        <mxCell id="OAEr4lpNUEm3LDWk9QwF-4" value="STATE 2: &lt;br&gt;RUN PID" style="ellipse;whiteSpace=wrap;html=1;" parent="1" vertex="1">
          <mxGeometry x="360" y="627" width="120" height="80" as="geometry" />
        </mxCell>
        <mxCell id="OAEr4lpNUEm3LDWk9QwF-9" value="ALWAYS" style="text;html=1;align=center;verticalAlign=middle;resizable=0;points=[];autosize=1;strokeColor=none;fillColor=none;" parent="1" vertex="1">
          <mxGeometry x="400" y="418" width="70" height="30" as="geometry" />
        </mxCell>
        <mxCell id="OAEr4lpNUEm3LDWk9QwF-11" value="SHARE_WAIT != 1" style="text;html=1;align=center;verticalAlign=middle;resizable=0;points=[];autosize=1;strokeColor=none;fillColor=none;" parent="1" vertex="1">
          <mxGeometry x="151" y="560" width="120" height="30" as="geometry" />
        </mxCell>
        <mxCell id="OAEr4lpNUEm3LDWk9QwF-14" value="" style="curved=1;endArrow=classic;html=1;rounded=0;entryX=0.5;entryY=0;entryDx=0;entryDy=0;exitX=0.5;exitY=1;exitDx=0;exitDy=0;" parent="1" source="OAEr4lpNUEm3LDWk9QwF-2" target="OAEr4lpNUEm3LDWk9QwF-1" edge="1">
          <mxGeometry width="50" height="50" relative="1" as="geometry">
            <mxPoint x="350" y="350" as="sourcePoint" />
            <mxPoint x="400" y="300" as="targetPoint" />
            <Array as="points">
              <mxPoint x="400" y="300" />
            </Array>
          </mxGeometry>
        </mxCell>
        <mxCell id="OAEr4lpNUEm3LDWk9QwF-17" value="" style="curved=1;endArrow=classic;html=1;rounded=0;entryX=0.5;entryY=0;entryDx=0;entryDy=0;exitX=0.5;exitY=1;exitDx=0;exitDy=0;" parent="1" source="OAEr4lpNUEm3LDWk9QwF-1" target="OAEr4lpNUEm3LDWk9QwF-3" edge="1">
          <mxGeometry width="50" height="50" relative="1" as="geometry">
            <mxPoint x="400" y="398" as="sourcePoint" />
            <mxPoint x="400" y="448" as="targetPoint" />
            <Array as="points">
              <mxPoint x="400" y="430" />
            </Array>
          </mxGeometry>
        </mxCell>
        <mxCell id="OAEr4lpNUEm3LDWk9QwF-18" value="ALWAYS" style="text;html=1;align=center;verticalAlign=middle;resizable=0;points=[];autosize=1;strokeColor=none;fillColor=none;" parent="1" vertex="1">
          <mxGeometry x="401" y="287" width="70" height="30" as="geometry" />
        </mxCell>
        <mxCell id="OAEr4lpNUEm3LDWk9QwF-19" value="" style="curved=1;endArrow=classic;html=1;rounded=0;entryX=0.5;entryY=0;entryDx=0;entryDy=0;exitX=0.5;exitY=1;exitDx=0;exitDy=0;" parent="1" source="OAEr4lpNUEm3LDWk9QwF-3" target="OAEr4lpNUEm3LDWk9QwF-4" edge="1">
          <mxGeometry width="50" height="50" relative="1" as="geometry">
            <mxPoint x="410" y="525" as="sourcePoint" />
            <mxPoint x="410" y="575" as="targetPoint" />
            <Array as="points">
              <mxPoint x="400" y="560" />
            </Array>
          </mxGeometry>
        </mxCell>
        <mxCell id="OAEr4lpNUEm3LDWk9QwF-20" value="SHARE_STOP == 1" style="text;html=1;align=center;verticalAlign=middle;resizable=0;points=[];autosize=1;strokeColor=none;fillColor=none;" parent="1" vertex="1">
          <mxGeometry x="558" y="571" width="130" height="30" as="geometry" />
        </mxCell>
        <mxCell id="OAEr4lpNUEm3LDWk9QwF-23" value="" style="curved=1;endArrow=classic;html=1;rounded=0;exitX=0;exitY=1;exitDx=0;exitDy=0;entryX=0;entryY=0;entryDx=0;entryDy=0;" parent="1" source="OAEr4lpNUEm3LDWk9QwF-3" target="OAEr4lpNUEm3LDWk9QwF-3" edge="1">
          <mxGeometry width="50" height="50" relative="1" as="geometry">
            <mxPoint x="350" y="530" as="sourcePoint" />
            <mxPoint x="400" y="480" as="targetPoint" />
            <Array as="points">
              <mxPoint x="350" y="550" />
              <mxPoint x="320" y="500" />
              <mxPoint x="350" y="450" />
            </Array>
          </mxGeometry>
        </mxCell>
        <mxCell id="OAEr4lpNUEm3LDWk9QwF-24" value="ELSE" style="text;html=1;align=center;verticalAlign=middle;resizable=0;points=[];autosize=1;strokeColor=none;fillColor=none;" parent="1" vertex="1">
          <mxGeometry x="284" y="483" width="50" height="30" as="geometry" />
        </mxCell>
        <mxCell id="OAEr4lpNUEm3LDWk9QwF-25" value="MOTOR.DISABLE()&lt;br&gt;&lt;div&gt;MOTOR_LEFT.SET_EFFORT(0)&lt;br&gt;&lt;/div&gt;&lt;div&gt;SHARE_EFFORT.PUT(0)&lt;/div&gt;&lt;div&gt;&lt;div&gt;SHARE_RUN_DUR.PUT(0)&lt;br&gt;&lt;/div&gt;&lt;/div&gt;" style="text;html=1;align=center;verticalAlign=middle;resizable=0;points=[];autosize=1;strokeColor=none;fillColor=none;" parent="1" vertex="1">
          <mxGeometry x="688" y="557" width="200" height="70" as="geometry" />
        </mxCell>
        <mxCell id="OAEr4lpNUEm3LDWk9QwF-26" value="" style="endArrow=none;html=1;rounded=0;" parent="1" edge="1">
          <mxGeometry width="50" height="50" relative="1" as="geometry">
            <mxPoint x="688" y="616" as="sourcePoint" />
            <mxPoint x="698" y="556" as="targetPoint" />
          </mxGeometry>
        </mxCell>
        <mxCell id="zEx5gcNuVbIrO3sxtCNw-2" value="&lt;div&gt;MOTOR.ENABLE()&lt;/div&gt;" style="text;html=1;align=center;verticalAlign=middle;resizable=0;points=[];autosize=1;strokeColor=none;fillColor=none;" parent="1" vertex="1">
          <mxGeometry x="271" y="570" width="130" height="30" as="geometry" />
        </mxCell>
        <mxCell id="zEx5gcNuVbIrO3sxtCNw-3" value="" style="endArrow=none;html=1;rounded=0;" parent="1" edge="1">
          <mxGeometry width="50" height="50" relative="1" as="geometry">
            <mxPoint x="271" y="601" as="sourcePoint" />
            <mxPoint x="277" y="559" as="targetPoint" />
          </mxGeometry>
        </mxCell>
      </root>
    </mxGraphModel>
  </diagram>
</mxfile>
